<?xml version="1.0" encoding="UTF-8"?>
<svg width="100px" height="82px" viewBox="0 0 100 82" version="1.1" xmlns="http://www.w3.org/2000/svg" xmlns:xlink="http://www.w3.org/1999/xlink">
    <!-- Generator: Sketch 41.2 (35397) - http://www.bohemiancoding.com/sketch -->
    <title>icon-folder-warning</title>
    <desc>Created with Sketch.</desc>
    <defs></defs>
    <g id="Student-–-Course/Documents" stroke="none" stroke-width="1" fill="none" fill-rule="evenodd">
        <g id="student-documents" transform="translate(-494.000000, -487.000000)">
            <g id="Course-Files" transform="translate(412.000000, 139.000000)">
                <g id="4" transform="translate(0.000000, 308.000000)">
                    <g id="icon-folder-warning" transform="translate(82.000000, 40.000000)">
                        <path d="M0,15.0078125 C0,13.3466435 1.33801252,12 2.99280137,12 L97.0071986,12 C98.6600772,12 100,13.3358366 100,15.0078125 L100,76.9938646 C100,79.7586768 97.7711504,82 95.0067709,82 L4.99322906,82 C2.2355448,82 0,79.7698803 0,76.9938646 L0,15.0078125 Z M5,7.5 C5,6.11928813 6.12164166,5 7.50104859,5 L92.4989514,5 C93.8802424,5 95,6.10966206 95,7.5 L95,10 L5,10 L5,7.5 Z M15,5 L17.4842816,0.859530643 C17.769105,0.384824977 18.4474692,0 19.0006946,0 L40.9993054,0 C41.5519738,0 42.235405,0.392341614 42.5157184,0.859530643 L45,5 L15,5 Z" id="Icon" fill="#D37776"></path>
                        <path d="M62.2569989,52.8402695 L53.9444771,36.2152259 C53.5798928,35.4617517 52.8264186,34.9999449 52.0000275,34.9999449 C51.1736365,34.9999449 50.4201623,35.4617517 50.0312724,36.2152259 L41.7187506,52.8402695 C41.4027775,53.5208268 41.4270831,54.3229123 41.8159731,54.9548584 C42.2291686,55.6111101 42.9340315,56 43.6875057,56 L60.3125493,56 C61.0660235,56 61.7708865,55.6111101 62.184082,54.9548584 C62.5729719,54.3229123 62.5972776,53.5208268 62.2569989,52.8402695 Z M50.6875241,40.6874598 L53.312531,40.6874598 L53.312531,48.1249793 L50.6875241,48.1249793 L50.6875241,40.6874598 Z M52.0000275,53.8124943 C51.0278028,53.8124943 50.2500229,53.0347144 50.2500229,52.0624897 C50.2500229,51.0902649 51.0278028,50.3124851 52.0000275,50.3124851 C52.9722523,50.3124851 53.7500321,51.0902649 53.7500321,52.0624897 C53.7500321,53.0347144 52.9722523,53.8124943 52.0000275,53.8124943 Z" id="warning" fill="#FFFFFF"></path>
                    </g>
                </g>
            </g>
        </g>
    </g>
</svg>