<svg width="225" height="39" viewBox="0 0 225 39" xmlns="http://www.w3.org/2000/svg">
    <title>
        Wordmark
    </title>
    <g fill="none" fill-rule="evenodd">
        <path d="M222.57 20.77c.52-1.093.886-2.169 1.095-3.23-.4-.209-.747-.466-1.043-.77-.295-.305-.443-.648-.443-1.03 0-.31.093-.553.277-.728.184-.175.422-.262.714-.262.68 0 1.02.527 1.02 1.581 0 .832-.185 1.768-.553 2.81a18.79 18.79 0 0 1-1.434 3.095 21.977 21.977 0 0 1-1.852 2.753c-1.22 1.517-2.502 2.597-3.848 3.238-.68.324-1.244.486-1.695.486-.28 0-.513-.07-.7-.21a.694.694 0 0 1-.281-.59.76.76 0 0 1 .314-.639c.21-.158.457-.238.743-.238.273 0 .537.067.79.2.254.134.53.321.83.562 1.021-.54 1.996-1.317 2.923-2.333l-1.438-8.743c-.07-.4-.151-.68-.243-.838-.092-.16-.22-.239-.386-.239-.165 0-.336.127-.514.381s-.39.724-.638 1.41l-.248.724h-.371l.485-1.42c.458-1.326 1.207-1.99 2.248-1.99.273 0 .502.054.686.162.184.108.333.292.448.552.114.26.203.62.266 1.077l1 7.333a19.63 19.63 0 0 0 1.848-3.105zm-12.069 3.057c0 .26.078.454.233.58.156.128.36.191.615.191.323 0 .627-.14.91-.419.282-.28.556-.79.823-1.533l.276-.762h.372l-.41 1.228c-.273.807-.628 1.377-1.067 1.71-.438.333-.974.5-1.61.5-.583 0-1.02-.143-1.309-.429-.289-.285-.433-.682-.433-1.19 0-.311.06-.683.18-1.114l2.068-7.182h-1.753l.095-.39h1.772l.848-2.962c.717-.02 1.301-.111 1.752-.276l-.924 3.238h2.581l-.057.39h-2.629l-2.266 7.982a1.564 1.564 0 0 0-.067.438zm-5.44-7.867c0-.33-.14-.496-.42-.496-.298 0-.564.158-.8.472-.234.314-.482.82-.742 1.519l-.276.724h-.362l.504-1.42c.267-.742.616-1.263 1.048-1.561a2.372 2.372 0 0 1 1.372-.448c.863 0 1.295.407 1.295 1.22 0 .38-.108.882-.324 1.504l-2.086 5.915c-.101.279-.152.517-.152.714 0 .33.155.495.467.495.266 0 .517-.147.752-.443.235-.295.492-.81.771-1.547l.267-.724h.372l-.505 1.428c-.254.705-.594 1.216-1.02 1.534a2.263 2.263 0 0 1-1.38.476c-.908 0-1.362-.397-1.362-1.19 0-.4.114-.915.343-1.543l2.095-5.915c.095-.286.143-.524.143-.714zm.638-4.967c.14-.232.322-.418.548-.557.225-.14.458-.21.7-.21.292 0 .53.097.714.29.184.194.276.437.276.73 0 .253-.068.493-.205.718-.136.226-.319.408-.547.548a1.35 1.35 0 0 1-.715.21.938.938 0 0 1-.704-.286.987.987 0 0 1-.277-.715c0-.253.07-.496.21-.728zm-9.726 13.938c.59 0 1.067-.176 1.428-.528.362-.353.543-.846.543-1.481 0-.413-.077-.82-.233-1.22-.156-.4-.417-.853-.786-1.361a24.478 24.478 0 0 1-.69-.981 4.102 4.102 0 0 1-.4-.82 2.941 2.941 0 0 1-.176-1.028c0-.54.134-1.019.404-1.438.27-.419.637-.744 1.1-.976a3.36 3.36 0 0 1 1.524-.348c.673 0 1.238.126 1.696.376.457.251.685.69.685 1.32 0 .14-.031.287-.095.442a.995.995 0 0 1-.3.4.78.78 0 0 1-.51.167.748.748 0 0 1-.557-.229.808.808 0 0 1-.224-.59c0-.42.185-.854.553-1.305-.26-.152-.587-.228-.981-.228-.495 0-.902.165-1.22.495-.317.33-.475.78-.475 1.352 0 .343.057.637.171.881.114.245.28.52.495.829.216.308.384.55.505.728.387.604.676 1.118.867 1.543.19.426.285.867.285 1.324 0 .59-.152 1.12-.457 1.586-.304.467-.712.83-1.224 1.09a3.63 3.63 0 0 1-1.671.391c-.75 0-1.376-.159-1.881-.476-.505-.318-.757-.803-.757-1.457 0-.229.062-.432.186-.61.123-.178.315-.267.576-.267.292 0 .508.118.647.353.14.235.21.527.21.876 0 .229-.045.565-.133 1.01.24.12.54.18.895.18zm-5.855-8.028c.423-.756.851-1.304 1.286-1.643.435-.34.91-.51 1.424-.51.356 0 .636.103.843.31.206.206.31.471.31.795 0 .254-.064.489-.191.705a1.451 1.451 0 0 1-.505.514c-.21.127-.435.19-.676.19a.82.82 0 0 1-.557-.185c-.143-.124-.215-.297-.215-.52 0-.583.293-1 .877-1.247-.051-.05-.124-.076-.22-.076-.463 0-.958.343-1.485 1.029-.527.685-1.057 1.644-1.59 2.876-.534 1.232-1.042 2.657-1.525 4.276l-.41 1.629h-1.694l2.333-8.372c.095-.324.143-.578.143-.762 0-.298-.137-.448-.41-.448-.292 0-.557.154-.795.462-.238.308-.48.818-.728 1.529l-.258.724h-.371l.495-1.42c.457-1.339 1.241-2.009 2.353-2.009.749 0 1.123.378 1.123 1.134 0 .21-.022.428-.066.657-.045.228-.114.54-.21.933l-.628 2.476c.476-1.276.925-2.292 1.347-3.047zm-8.13 7.08c-.407.398-.862.72-1.367.968a3.478 3.478 0 0 1-1.548.371c-.806 0-1.436-.237-1.89-.71-.454-.473-.681-1.154-.681-2.043 0-.984.289-2.096.866-3.338a9.568 9.568 0 0 1 2.348-3.171c.987-.873 2.059-1.31 3.214-1.31.42 0 .766.111 1.039.334.273.222.41.54.41.952 0 1.054-.588 1.971-1.763 2.752-1.174.781-2.53 1.432-4.067 1.953a8.563 8.563 0 0 0-.219 1.886c0 1.25.448 1.876 1.343 1.876 1.111 0 2.115-.65 3.01-1.953l.314.153a6.056 6.056 0 0 1-1.01 1.28zm-.886-8.133c-.514.486-.995 1.134-1.443 1.943-.448.81-.789 1.668-1.024 2.576 1.283-.45 2.168-.87 2.657-1.257a3.872 3.872 0 0 0 1.524-3.114c0-.35-.025-.583-.076-.7-.05-.118-.13-.176-.238-.176-.42 0-.886.242-1.4.728zm-11.379 2.762a11.872 11.872 0 0 0-1.052 3.957 9.02 9.02 0 0 0-.02.458c0 1.098.287 1.647.858 1.647.952 0 1.81-.397 2.572-1.19.762-.794 1.365-1.745 1.81-2.853.444-1.108.688-2.1.733-2.976a3.068 3.068 0 0 1-1.067-.862c-.28-.359-.4-.773-.362-1.243.019-.28.114-.486.286-.619a.908.908 0 0 1 .571-.2c.368 0 .645.176.829.529.184.352.276.833.276 1.443 0 .21-.016.466-.048.771a13.3 13.3 0 0 1-1.024 3.81c-.523 1.193-1.223 2.165-2.1 2.914a4.536 4.536 0 0 1-3.038 1.124c-.768 0-1.333-.211-1.695-.633-.362-.423-.543-.948-.543-1.577l.01-.21c.076-1.072.522-2.264 1.338-3.575.816-1.312 1.877-2.593 3.185-3.843-.234.088-.554.257-.957.504-.403.248-.722.432-.957.553a1.45 1.45 0 0 1-.657.18.734.734 0 0 1-.314-.066 4.021 4.021 0 0 1-.424-.248c-.188-.12-.351-.18-.49-.18a.623.623 0 0 0-.51.261c-.137.175-.284.49-.443.948l-.22.724h-.37l.428-1.42c.362-1.326.975-1.99 1.838-1.99.248 0 .484.084.71.253.225.168.406.295.543.38a.96.96 0 0 0 .519.13c.647 0 1.193-.204 1.638-.61l.2-.372.41.2c-1.055 1.302-1.875 2.595-2.463 3.881zm-7.492-2.652c0-.33-.14-.496-.42-.496-.298 0-.564.158-.8.472-.234.314-.482.82-.742 1.519l-.276.724h-.362l.504-1.42c.267-.742.616-1.263 1.048-1.561a2.372 2.372 0 0 1 1.372-.448c.863 0 1.295.407 1.295 1.22 0 .38-.108.882-.324 1.504l-2.086 5.915c-.101.279-.152.517-.152.714 0 .33.155.495.466.495.267 0 .518-.147.753-.443.235-.295.492-.81.771-1.547l.267-.724h.371l-.504 1.428c-.254.705-.594 1.216-1.02 1.534a2.263 2.263 0 0 1-1.38.476c-.908 0-1.362-.397-1.362-1.19 0-.4.114-.915.343-1.543l2.095-5.915c.095-.286.143-.524.143-.714zm.638-4.967c.14-.232.322-.418.547-.557.226-.14.46-.21.7-.21.293 0 .53.097.715.29.184.194.276.437.276.73 0 .253-.068.493-.205.718-.136.226-.319.408-.547.548a1.35 1.35 0 0 1-.715.21.938.938 0 0 1-.705-.286.987.987 0 0 1-.276-.715c0-.253.07-.496.21-.728zm-5.821 12.32c-.457 1.34-1.245 2.009-2.362 2.009-.584 0-.994-.19-1.229-.571-.102-.166-.152-.378-.152-.639 0-.368.11-.876.333-1.523l1.848-5.582c.133-.387.2-.708.2-.962 0-.45-.21-.676-.629-.676-.501 0-1.067.364-1.695 1.09-.629.728-1.246 1.726-1.853 2.996a27.906 27.906 0 0 0-1.585 4.229l-.343 1.362h-1.696l2.334-8.372c.095-.311.143-.556.143-.733 0-.318-.143-.477-.429-.477a.826.826 0 0 0-.528.186c-.156.124-.312.329-.467.615a9.007 9.007 0 0 0-.51 1.19l-.257.724h-.371l.495-1.42c.457-1.339 1.229-2.009 2.314-2.009.769 0 1.153.384 1.153 1.153 0 .349-.09.873-.267 1.571l-.676 2.667c.559-1.32 1.097-2.375 1.614-3.162.518-.788 1.04-1.356 1.567-1.705a3.028 3.028 0 0 1 1.705-.524c1.047 0 1.571.49 1.571 1.467 0 .387-.095.88-.285 1.476l-1.896 5.696c-.101.304-.152.549-.152.733 0 .317.155.476.467.476.266 0 .52-.147.761-.443.242-.295.49-.81.743-1.547l.257-.724h.362l-.485 1.428zm-11.203-10.677c0-.356-.11-.607-.333-.753-.222-.146-.59-.231-1.105-.257l.095-.39c.445.038 1.102.057 1.972.057.78 0 1.394-.02 1.838-.057l-.105.39c-.457.02-.81.086-1.062.2-.25.115-.45.299-.6.553-.149.254-.284.628-.404 1.124l-1.515 5.866c-.476 1.81-1.114 3.188-1.914 4.134a5.15 5.15 0 0 1-1.762 1.328 5.213 5.213 0 0 1-2.238.491c-1.39 0-2.39-.352-3-1.057-.457-.508-.686-1.168-.686-1.981 0-.673.162-1.626.486-2.857l1.619-6.124c.108-.413.162-.724.162-.934 0-.197-.043-.346-.129-.447-.086-.102-.22-.174-.405-.215a4.571 4.571 0 0 0-.78-.08l.123-.391c.52.038 1.359.057 2.515.057.996 0 1.81-.02 2.438-.057l-.115.39c-.476.02-.831.07-1.066.153-.235.082-.42.235-.553.457-.133.222-.263.578-.39 1.067l-1.724 6.457c-.286 1.124-.429 2.003-.429 2.638 0 .718.177 1.27.529 1.657.352.388.944.581 1.776.581 1.365 0 2.44-.443 3.224-1.328.784-.886 1.386-2.126 1.805-3.72l1.6-6.085c.089-.356.133-.645.133-.867z" fill="#52AACA"/>
        <path d="M55.12 23.708c.559.816 1.42 1.223 2.581 1.223.445 0 .86-.092 1.243-.276.384-.184.695-.471.934-.862.238-.39.357-.877.357-1.462 0-.501-.122-.95-.367-1.347a4.206 4.206 0 0 0-.995-1.09c-.42-.331-.978-.706-1.676-1.125-.775-.463-1.397-.879-1.867-1.247a4.692 4.692 0 0 1-1.157-1.32c-.302-.51-.453-1.112-.453-1.804 0-.737.167-1.359.5-1.867a3.078 3.078 0 0 1 1.334-1.138 4.404 4.404 0 0 1 1.833-.376c.4 0 .745.033 1.033.1.29.066.529.149.72.247.19.099.4.224.628.377.292.184.514.276.667.276.12 0 .212-.069.276-.205.063-.137.114-.354.152-.652h.448c-.064.762-.095 2.089-.095 3.98h-.448a5.876 5.876 0 0 0-.433-1.847 3.319 3.319 0 0 0-1.048-1.376c-.46-.353-1.033-.529-1.719-.529-.457 0-.867.095-1.229.286-.362.19-.644.457-.847.8a2.272 2.272 0 0 0-.305 1.18c0 .706.213 1.274.638 1.706.425.431.922.82 1.49 1.166l1.148.7c.82.515 1.467.96 1.943 1.339.476.377.857.815 1.143 1.314.286.498.429 1.078.429 1.738 0 .8-.184 1.478-.553 2.033a3.423 3.423 0 0 1-1.49 1.253c-.626.28-1.326.419-2.1.419-.623 0-1.134-.065-1.534-.195-.4-.13-.778-.307-1.133-.529-.292-.184-.514-.276-.667-.276-.12 0-.212.068-.276.205-.063.136-.114.354-.152.652h-.448c.05-.711.076-2.27.076-4.676h.448c.089 1.32.413 2.389.971 3.205zm16.46-8.653c.578 0 1.073-.02 1.486-.057v.39c-.26.032-.492.15-.696.353-.203.203-.393.543-.571 1.019l-3.2 8.381-.667 1.695c-.247.642-.527 1.099-.838 1.372-.368.336-.876.505-1.524.505-.387 0-.705-.104-.952-.31-.248-.206-.372-.494-.372-.862 0-.311.092-.56.277-.748.184-.187.438-.28.761-.28.286 0 .523.079.71.238.187.158.281.384.281.676 0 .387-.175.68-.524.876a.265.265 0 0 0 .114.02c.718 0 1.27-.509 1.658-1.525l.695-1.78-3.543-8.515c-.222-.451-.443-.746-.662-.886-.22-.14-.44-.21-.662-.21v-.41c.61.083 1.248.125 1.914.125.56 0 1.404-.042 2.534-.124v.41c-.318 0-.565.01-.743.033a.833.833 0 0 0-.443.18c-.117.1-.176.253-.176.463 0 .234.082.555.248.961l2.352 5.83 2.152-5.649c.14-.38.21-.679.21-.895 0-.305-.116-.53-.348-.676-.231-.146-.601-.235-1.11-.267v-.39c.687.038 1.233.057 1.639.057zm5.483 9.029a.837.837 0 0 0 .467.428c.212.083.503.124.871.124v.41a70.729 70.729 0 0 0-2.362-.076c-.38 0-1.168.025-2.362.076v-.41c.368 0 .659-.041.872-.124a.837.837 0 0 0 .466-.428c.099-.203.148-.486.148-.848V12.093c0-.603-.11-1.04-.329-1.31-.219-.27-.604-.404-1.157-.404v-.41c.406.038.81.057 1.21.057.838 0 1.514-.092 2.028-.276v13.486c0 .362.05.645.148.848zm6.069 0a.837.837 0 0 0 .466.428c.213.083.504.124.872.124v.41a70.729 70.729 0 0 0-2.362-.076c-.381 0-1.168.025-2.362.076v-.41c.368 0 .659-.041.871-.124a.837.837 0 0 0 .467-.428c.098-.203.148-.486.148-.848V12.093c0-.603-.11-1.04-.329-1.31-.219-.27-.605-.404-1.157-.404v-.41c.406.038.81.057 1.21.057.838 0 1.514-.092 2.028-.276v13.486c0 .362.05.645.148.848zm8.021-8.548c-.314-.276-.76-.414-1.338-.414-.92 0-1.565.231-1.934.695a1.19 1.19 0 0 1 .915 1.19c0 .33-.103.59-.31.777-.206.187-.484.28-.833.28-.33 0-.59-.11-.776-.333-.188-.222-.281-.514-.281-.876 0-.508.304-.971.914-1.39.317-.21.71-.385 1.176-.524a5.42 5.42 0 0 1 1.557-.21c.534 0 1.004.065 1.41.195.406.13.724.31.952.538.299.305.504.66.615 1.062.11.404.166.96.166 1.672v5.42c0 .323.046.558.138.704.093.146.247.219.462.219a.93.93 0 0 0 .439-.105c.133-.07.279-.171.438-.305l.219.334c-.229.171-.42.305-.572.4a2.074 2.074 0 0 1-.524.228 2.468 2.468 0 0 1-.685.086c-.629 0-1.065-.157-1.31-.471-.244-.315-.367-.735-.367-1.262-.38.628-.838 1.074-1.371 1.338a3.64 3.64 0 0 1-1.629.395c-.45 0-.863-.078-1.238-.233a2 2 0 0 1-.9-.724c-.225-.327-.338-.735-.338-1.224 0-.495.12-.917.362-1.267.241-.349.58-.655 1.019-.919.438-.263 1.025-.55 1.762-.862.127-.05.438-.177.933-.38.496-.204.853-.407 1.072-.61.219-.203.328-.426.328-.667v-1.21c0-.755-.157-1.27-.471-1.547zm-.005 3.967c-.222.127-.686.362-1.39.705-.375.177-.692.36-.953.547-.26.187-.482.44-.666.757-.185.318-.277.708-.277 1.172 0 .565.143.992.429 1.28.286.29.663.434 1.133.434.864 0 1.597-.492 2.2-1.476v-3.829c-.095.146-.254.283-.476.41zm9.002-4.224a3.129 3.129 0 0 1 1.81-.548c.724 0 1.364.199 1.92.595.555.397.991.994 1.309 1.79.317.798.476 1.77.476 2.92 0 1.124-.195 2.084-.586 2.881-.39.797-.916 1.397-1.576 1.8s-1.39.605-2.19.605a3.49 3.49 0 0 1-1.391-.29 3.35 3.35 0 0 1-1.181-.853l-1.39 1.181-.324-.143c.088-.317.133-.692.133-1.124V12.112c0-.603-.11-1.04-.329-1.31-.219-.27-.605-.404-1.157-.404v-.41c.413.038.816.057 1.21.057.838 0 1.514-.092 2.028-.276v7.048c.292-.66.705-1.173 1.238-1.538zm-.195 9.348c.39.165.792.247 1.205.247.876 0 1.53-.395 1.962-1.185.432-.79.648-2.008.648-3.653 0-1.587-.196-2.771-.586-3.552-.39-.781-.989-1.172-1.795-1.172-.35 0-.69.094-1.02.281-.33.187-.623.464-.88.829-.258.365-.45.804-.577 1.319v6.162c.305.317.653.559 1.043.724zm16.85-.376c.22.27.605.404 1.157.404v.41c-.406-.038-.81-.057-1.21-.057-.837 0-1.513.092-2.028.276v-2.305c-.317.8-.76 1.39-1.328 1.772a3.29 3.29 0 0 1-1.872.571c-.876 0-1.552-.248-2.028-.743-.235-.254-.402-.584-.5-.99-.099-.407-.148-.927-.148-1.562V17.13c0-.603-.108-1.041-.324-1.314-.216-.273-.6-.41-1.152-.41v-.41c.406.039.81.058 1.21.058.818 0 1.494-.089 2.028-.267v7.667c0 .495.028.895.086 1.2.057.305.193.554.41.748.215.194.542.29.98.29.502 0 .953-.155 1.353-.466.4-.311.714-.737.942-1.277.229-.54.343-1.136.343-1.79V17.13c0-.603-.11-1.041-.328-1.314-.22-.273-.605-.41-1.157-.41v-.41c.406.039.81.058 1.21.058.825 0 1.5-.089 2.028-.267v8.153c0 .603.11 1.04.328 1.31zm4.083-.977c.178.52.451.927.82 1.22.368.291.863.437 1.485.437.286 0 .56-.061.824-.185.263-.124.481-.324.652-.6.172-.276.258-.634.258-1.072 0-.355-.09-.674-.272-.957a3.025 3.025 0 0 0-.71-.762 16.005 16.005 0 0 0-1.228-.833 21.234 21.234 0 0 1-1.472-1 3.592 3.592 0 0 1-.861-.953c-.235-.374-.353-.816-.353-1.323 0-.553.13-1.018.39-1.396a2.35 2.35 0 0 1 1.044-.843 3.69 3.69 0 0 1 1.452-.276c.457 0 .868.073 1.233.22.365.145.662.31.89.494.14.108.255.162.344.162.228 0 .374-.285.438-.857h.447c-.05.635-.076 1.74-.076 3.315h-.447c-.14-.858-.416-1.566-.829-2.124-.413-.56-1.022-.838-1.829-.838-.47 0-.854.131-1.152.395-.298.263-.448.63-.448 1.1 0 .45.154.827.462 1.128.308.302.68.59 1.115.862.435.273.744.47.928.59a15.94 15.94 0 0 1 1.443 1.034c.365.302.66.648.886 1.038.225.39.338.837.338 1.339 0 .577-.15 1.071-.452 1.48-.302.41-.707.721-1.215.934a4.272 4.272 0 0 1-1.667.319c-.577 0-1.092-.092-1.542-.276a4.632 4.632 0 0 1-.8-.524.247.247 0 0 0-.181-.076c-.19 0-.324.244-.4.733h-.448c.05-.743.076-2.041.076-3.895h.448c.095.806.232 1.47.41 1.99z" fill="#333"/>
        <path d="M7.359 29.59c-3.257-1.759-5.075-5.047-5.227-9.635-.151-4.665 1.364-8.03 4.47-10.018.908-.535 1.968-.994 3.18-1.376l1.44-2.447c-2.046.306-4.015.994-5.757 2.064C2.89 9.861-.215 13.226.012 20.031c.227 6.806 3.635 9.942 6.362 11.471 1.742.918 3.711 1.453 5.908 1.606l-1.59-2.37a13.25 13.25 0 0 1-3.333-1.148" fill="#F2AE6C"/>
        <path d="M36.443 24.62c-.076-1.989-.682-3.977-1.59-5.889l-1.212 2.6c.378 1.224.681 2.371.681 3.442.152 3.747-1.742 6.958-5.68 9.405-3.863 2.448-7.498 2.83-10.831 1.071-.909-.459-1.894-1.223-2.727-2.141h-2.802c1.287 1.682 2.802 3.059 4.62 3.976 1.363.689 3.105 1.3 5.226 1.3 2.197 0 4.772-.611 7.65-2.523 5.68-3.594 6.74-8.106 6.665-11.241" fill="#B5DDC3"/>
        <path d="M16.675 3.59c3.105-2.064 6.816-1.988 10.83.23 4.09 2.14 6.211 5.2 6.363 8.947a9.387 9.387 0 0 1-.455 3.517l1.44 2.447c.833-2.064 1.211-4.129 1.136-6.04-.152-3.136-1.515-7.571-7.499-10.783-5.907-3.135-10.3-1.835-12.951-.153-1.742 1.07-3.182 2.6-4.318 4.359l2.803-.23c.833-.994 1.742-1.758 2.65-2.294" fill="#7CC2DB"/>
        <path d="M24.703 27.678c-3.105 1.989-7.347 3.289-11.36 3.289a21.185 21.185 0 0 1-3.788-11.318c-.151-4.435 1.06-8.488 2.878-11.547 3.484-.382 7.65.23 11.589 2.37 3.938 2.065 6.816 5.2 8.483 8.336-1.667 3.67-4.696 6.959-7.802 8.87m8.786-11.394c-2.196-3.288-5.377-6.04-8.483-7.723-3.03-1.606-6.968-2.677-10.906-2.677h-.076l-2.803.23L9.858 8.56c-1.666 3.517-2.5 7.647-2.348 11.165.152 3.517 1.212 7.57 3.181 11.011l1.59 2.37h2.803c.379 0 .758-.076 1.136-.076 3.409-.458 6.817-1.682 9.62-3.44 2.802-1.76 5.377-4.36 7.27-7.265.228-.306.38-.612.606-.918l1.212-2.6-1.439-2.524" fill="#2E3D47"/>
    </g>
</svg>
