<svg width="16" height="16" viewBox="0 0 16 16" xmlns="http://www.w3.org/2000/svg">
    <title>
        warning
    </title>
    <path d="M15.815 13.593L9.482.926A1.637 1.637 0 0 0 8 0c-.63 0-1.204.352-1.5.926L.167 13.593c-.241.518-.223 1.13.074 1.61.315.5.852.797 1.426.797h12.666c.574 0 1.111-.296 1.426-.796a1.66 1.66 0 0 0 .056-1.611zM7 4.333h2V10H7V4.333zm1 10c-.74 0-1.333-.592-1.333-1.333 0-.74.592-1.333 1.333-1.333.74 0 1.333.592 1.333 1.333 0 .74-.592 1.333-1.333 1.333z" fill="#FFF" fill-rule="evenodd"/>
</svg>
