<?xml version="1.0" encoding="UTF-8"?>
<svg width="225px" height="39px" viewBox="0 0 225 39" version="1.1" xmlns="http://www.w3.org/2000/svg" xmlns:xlink="http://www.w3.org/1999/xlink">
    <!-- Generator: Sketch 41.2 (35397) - http://www.bohemiancoding.com/sketch -->
    <title>Wordmark</title>
    <desc>Created with Sketch.</desc>
    <defs></defs>
    <g id="Student-–-Course/Documents" stroke="none" stroke-width="1" fill="none" fill-rule="evenodd">
        <g id="student-dashboard" transform="translate(-100.000000, -50.000000)">
            <g id="Sidebar" transform="translate(100.000000, 50.000000)">
                <g id="Wordmark">
                    <path d="M222.569958,20.7694331 C223.090614,19.677326 223.455702,18.6011086 223.665235,17.5407487 C223.265219,17.3312166 222.917591,17.0740673 222.622341,16.7692932 C222.327091,16.4645191 222.179468,16.1216534 222.179468,15.7406858 C222.179468,15.4295622 222.271534,15.186699 222.455669,15.0120889 C222.639803,14.8374787 222.877904,14.7501749 223.169979,14.7501749 C223.849371,14.7501749 224.189063,15.2771722 224.189063,16.3311826 C224.189063,17.1629619 224.004931,18.0994932 223.636662,19.1408047 C223.268394,20.1821162 222.790604,21.213888 222.203279,22.2361511 C221.615954,23.2584142 220.998478,24.1758974 220.350833,24.9886283 C219.131737,26.5061493 217.849165,27.5855414 216.503079,28.2268369 C215.823687,28.5506593 215.258594,28.7125681 214.807782,28.7125681 C214.528406,28.7125681 214.295067,28.6427251 214.107757,28.503037 C213.920448,28.3633489 213.826795,28.1665186 213.826795,27.9125402 C213.826795,27.6458628 213.93156,27.4331591 214.141092,27.2744226 C214.350624,27.1156861 214.598249,27.036319 214.883975,27.036319 C215.157002,27.036319 215.420501,27.1029874 215.674479,27.236326 C215.928457,27.3696647 216.204655,27.556971 216.503079,27.7982504 C217.525342,27.2585463 218.49997,26.4807491 219.426991,25.4648355 L217.988846,16.7216725 C217.919002,16.3216565 217.838047,16.0422844 217.74598,15.8835479 C217.653913,15.7248114 217.525338,15.6454443 217.360252,15.6454443 C217.195166,15.6454443 217.023733,15.7724316 216.845948,16.0264101 C216.668164,16.2803885 216.45546,16.7502415 216.207831,17.4359832 L215.960203,18.159818 L215.588762,18.159818 L216.074493,16.7407208 C216.531654,15.4136836 217.280879,14.7501749 218.322191,14.7501749 C218.595217,14.7501749 218.823795,14.8041445 219.007929,14.9120854 C219.192063,15.0200262 219.341273,15.2041578 219.455564,15.4644856 C219.569854,15.7248135 219.658745,16.0835526 219.72224,16.5407138 L220.722275,23.8743036 C221.433414,22.8964868 222.049302,21.8615403 222.569958,20.7694331 Z M210.500965,23.8266829 C210.500965,24.0870108 210.578744,24.2806664 210.734306,24.4076556 C210.889868,24.5346448 211.094635,24.5981385 211.348613,24.5981385 C211.672436,24.5981385 211.975618,24.4584525 212.258169,24.1790762 C212.54072,23.8997 212.81533,23.3885761 213.082007,22.6456892 L213.358207,21.8837578 L213.729649,21.8837578 L213.320111,23.1123722 C213.047084,23.9187537 212.69152,24.4886092 212.253407,24.8219558 C211.815294,25.1553025 211.278773,25.3219733 210.643827,25.3219733 C210.059676,25.3219733 209.623158,25.1791126 209.334257,24.8933869 C209.045357,24.6076612 208.900909,24.2108259 208.900909,23.7028691 C208.900909,23.3917455 208.961228,23.0203077 209.081867,22.5885444 L211.148606,15.4073408 L209.396164,15.4073408 L209.491405,15.0168509 L211.262896,15.0168509 L212.110545,12.0548425 C212.828034,12.0357942 213.412175,11.9437284 213.862987,11.7786424 L212.939145,15.0168509 L215.520188,15.0168509 L215.463043,15.4073408 L212.83438,15.4073408 L210.567634,23.3885724 C210.523187,23.5409594 210.500965,23.6869948 210.500965,23.8266829 Z M205.060774,15.9597411 C205.060774,15.6295691 204.921088,15.4644856 204.641712,15.4644856 C204.343287,15.4644856 204.076614,15.6216324 203.841684,15.9359307 C203.606754,16.250229 203.359129,16.7565908 203.098801,17.4550315 L202.822601,18.1788663 L202.460683,18.1788663 L202.965463,16.759769 C203.23214,16.0168822 203.581355,15.4962343 204.013119,15.1978096 C204.444882,14.899385 204.902036,14.7501749 205.384595,14.7501749 C206.248122,14.7501749 206.679879,15.1565343 206.679879,15.9692652 C206.679879,16.3502328 206.571939,16.8518326 206.356058,17.4740797 L204.27027,23.3885724 C204.168679,23.6679486 204.117884,23.9060498 204.117884,24.1028831 C204.117884,24.433055 204.273444,24.5981385 204.584567,24.5981385 C204.851244,24.5981385 205.102044,24.4505158 205.336974,24.1552659 C205.571904,23.860016 205.829054,23.3441301 206.10843,22.6075927 L206.375106,21.8837578 L206.746548,21.8837578 L206.241768,23.3123792 C205.98779,24.0171693 205.648099,24.5282932 205.222685,24.8457662 C204.797271,25.1632392 204.336942,25.3219733 203.841684,25.3219733 C202.933711,25.3219733 202.479732,24.925138 202.479732,24.1314555 C202.479732,23.7314395 202.59402,23.2171409 202.822601,22.5885444 L204.917912,16.6740518 C205.013154,16.388326 205.060774,16.1502249 205.060774,15.9597411 Z M205.698892,10.9929006 C205.83858,10.7611453 206.021124,10.5754264 206.24653,10.4357383 C206.471936,10.2960502 206.705275,10.2262071 206.946554,10.2262071 C207.23863,10.2262071 207.476731,10.323035 207.660865,10.5166935 C207.845,10.710352 207.937065,10.9532152 207.937065,11.2452904 C207.937065,11.4992688 207.86881,11.7389573 207.732296,11.9643632 C207.595783,12.189769 207.413239,12.3723133 207.184658,12.5120014 C206.956077,12.6516895 206.717976,12.7215325 206.470347,12.7215325 C206.184622,12.7215325 205.949695,12.6262921 205.765561,12.4358082 C205.581426,12.2453244 205.489361,12.0072233 205.489361,11.7214975 C205.489361,11.4675191 205.559204,11.2246559 205.698892,10.9929006 Z M195.972837,24.9314835 C196.563337,24.9314835 197.039539,24.7552886 197.401459,24.4028936 C197.763378,24.0504985 197.944335,23.5568354 197.944335,22.9218894 C197.944335,22.5091745 197.866555,22.1028151 197.710993,21.7027991 C197.555432,21.3027831 197.29352,20.8488035 196.925252,20.3408467 C196.614128,19.9154329 196.383963,19.5884406 196.234751,19.35986 C196.085539,19.1312794 195.952202,18.8582567 195.834737,18.5407837 C195.717272,18.2233107 195.658541,17.880445 195.658541,17.5121763 C195.658541,16.9724722 195.793465,16.4930951 196.063317,16.0740308 C196.333169,15.6549664 196.699844,15.3295614 197.163355,15.0978061 C197.626866,14.8660508 198.134815,14.7501749 198.687218,14.7501749 C199.360261,14.7501749 199.925354,14.8755749 200.382515,15.1263786 C200.839676,15.3771822 201.068254,15.8168758 201.068254,16.4454723 C201.068254,16.5851605 201.036507,16.7327832 200.973012,16.888345 C200.909518,17.0439067 200.809515,17.1772434 200.673002,17.288359 C200.536488,17.3994745 200.366643,17.4550315 200.16346,17.4550315 C199.941229,17.4550315 199.75551,17.3788391 199.606298,17.226452 C199.457085,17.074065 199.38248,16.8772347 199.38248,16.6359552 C199.38248,16.2168908 199.566612,15.7819593 199.934881,15.3311476 C199.674553,15.1787606 199.34756,15.1025682 198.953894,15.1025682 C198.458636,15.1025682 198.052277,15.2676517 197.734804,15.5978236 C197.417331,15.9279956 197.258597,16.3788005 197.258597,16.9502519 C197.258597,17.2931227 197.315741,17.5867809 197.430031,17.8312351 C197.544321,18.0756893 197.709405,18.3518867 197.925287,18.6598355 C198.141168,18.9677843 198.309426,19.2106475 198.430066,19.3884324 C198.817383,19.9916312 199.106279,20.5059297 199.296763,20.9313435 C199.487247,21.3567574 199.582487,21.7980383 199.582487,22.2551994 C199.582487,22.8456992 199.430103,23.3742838 199.125328,23.8409691 C198.820554,24.3076545 198.412608,24.6711556 197.901476,24.9314835 C197.390345,25.1918114 196.833188,25.3219733 196.229989,25.3219733 C195.480753,25.3219733 194.853753,25.1632392 194.348971,24.8457662 C193.844189,24.5282932 193.591802,24.0425668 193.591802,23.3885724 C193.591802,23.1599918 193.653708,22.9568121 193.777522,22.7790272 C193.901337,22.6012423 194.093405,22.5123512 194.353733,22.5123512 C194.645808,22.5123512 194.861687,22.6298145 195.001375,22.8647445 C195.141063,23.0996745 195.210906,23.3917453 195.210906,23.7409657 C195.210906,23.9695462 195.16646,24.3060626 195.077568,24.7505248 C195.318847,24.8711645 195.617267,24.9314835 195.972837,24.9314835 Z M190.118347,16.9026312 C190.540586,16.1470454 190.969168,15.5994127 191.404106,15.2597166 C191.839044,14.9200204 192.313659,14.7501749 192.827965,14.7501749 C193.183535,14.7501749 193.464494,14.8533521 193.670852,15.0597096 C193.877209,15.266067 193.980387,15.531153 193.980387,15.8549755 C193.980387,16.1089539 193.916893,16.3438804 193.789904,16.559762 C193.662915,16.7756437 193.494656,16.9470765 193.285124,17.0740657 C193.075592,17.201055 192.85019,17.2645486 192.60891,17.2645486 C192.380329,17.2645486 192.194611,17.2026423 192.051748,17.0788278 C191.908885,16.9550133 191.837454,16.7819932 191.837454,16.559762 C191.837454,15.9756117 192.129525,15.5597283 192.713676,15.3120993 C192.66288,15.2613037 192.589862,15.2359062 192.49462,15.2359062 C192.03111,15.2359062 191.535859,15.5787719 191.008854,16.2645136 C190.481849,16.9502553 189.951677,17.9090094 189.418322,19.1408047 C188.884968,20.3726 188.377018,21.7980324 187.894459,23.4171448 L187.484921,25.0457732 L185.789624,25.0457732 L188.123039,16.6740518 C188.218281,16.3502293 188.265901,16.0962547 188.265901,15.9121203 C188.265901,15.6136957 188.12939,15.4644856 187.856363,15.4644856 C187.564288,15.4644856 187.299202,15.6184577 187.061097,15.9264066 C186.822992,16.2343554 186.580129,16.7438919 186.3325,17.4550315 L186.075348,18.1788663 L185.703907,18.1788663 L186.199162,16.759769 C186.656323,15.4200329 187.44047,14.7501749 188.551625,14.7501749 C189.300862,14.7501749 189.675474,15.1279621 189.675474,15.8835479 C189.675474,16.0930801 189.653251,16.3121332 189.608805,16.5407138 C189.564359,16.7692943 189.494516,17.0804132 189.399274,17.4740797 L188.770681,19.9503568 C189.24689,18.6741153 189.696108,17.6582169 190.118347,16.9026312 Z M181.987586,23.9838313 C181.581221,24.3806726 181.125654,24.7029028 180.620872,24.9505318 C180.116089,25.1981607 179.600204,25.3219733 179.073198,25.3219733 C178.266817,25.3219733 177.636642,25.0854595 177.182656,24.6124247 C176.72867,24.1393899 176.50168,23.4584205 176.50168,22.5694961 C176.50168,21.5853298 176.790576,20.4726035 177.368377,19.2312841 C177.946178,17.9899646 178.728737,16.9327953 179.716078,16.0597445 C180.703419,15.1866938 181.774874,14.7501749 182.930476,14.7501749 C183.349541,14.7501749 183.695581,14.8612888 183.968608,15.0835199 C184.241635,15.305751 184.378146,15.6232193 184.378146,16.0359342 C184.378146,17.0899446 183.79083,18.0074278 182.616179,18.7884114 C181.441529,19.569395 180.08594,20.220205 178.549371,20.7408607 C178.403333,21.3885056 178.330315,22.0170928 178.330315,22.626641 C178.330315,23.8774846 178.777945,24.5028971 179.673219,24.5028971 C180.784375,24.5028971 181.787575,23.8520872 182.682848,22.5504478 L182.997145,22.7028341 C182.730468,23.1599952 182.393952,23.58699 181.987586,23.9838313 Z M181.101841,15.8502134 C180.587535,16.3359471 180.10657,16.9835823 179.658933,17.7931385 C179.211296,18.6026947 178.870018,19.4614463 178.635088,20.3694191 C179.917679,19.9186075 180.803415,19.4995494 181.292324,19.1122323 C181.774883,18.7376141 182.149495,18.2820472 182.416172,17.7455178 C182.68285,17.2089884 182.816186,16.6264342 182.816186,15.9978376 C182.816186,15.6486173 182.790789,15.4152781 182.739993,15.2978131 C182.689198,15.1803481 182.609831,15.1216165 182.50189,15.1216165 C182.082825,15.1216165 181.616147,15.3644797 181.101841,15.8502134 Z M169.723347,18.6122148 C169.136022,19.8979805 168.78522,21.2170611 168.67093,22.5694961 C168.658231,22.7853777 168.651881,22.9377625 168.651881,23.0266549 C168.651881,24.1251116 168.937603,24.6743316 169.509054,24.6743316 C170.461473,24.6743316 171.318638,24.2774963 172.080573,23.4838138 C172.842508,22.6901313 173.445698,21.7393139 173.89016,20.6313331 C174.334622,19.5233522 174.579073,18.531264 174.623519,17.6550385 C174.191756,17.4391568 173.836191,17.151848 173.556815,16.7931035 C173.277439,16.434359 173.156801,16.020063 173.194897,15.5502029 C173.213946,15.2708267 173.309186,15.0644723 173.480622,14.9311336 C173.652057,14.797795 173.842538,14.7311266 174.05207,14.7311266 C174.420339,14.7311266 174.696536,14.9073215 174.880671,15.2597166 C175.064805,15.6121116 175.156871,16.093076 175.156871,16.7026242 C175.156871,16.9121564 175.140997,17.1693057 175.10925,17.4740797 C174.950514,18.8201653 174.609235,20.0900383 174.085405,21.2837368 C173.561574,22.4774354 172.861557,23.4488882 171.985331,24.1981245 C171.109106,24.9473608 170.096382,25.3219733 168.94713,25.3219733 C168.178845,25.3219733 167.613752,25.110857 167.251832,24.6886179 C166.889913,24.2663787 166.708956,23.7409688 166.708956,23.1123722 L166.71848,22.9028411 C166.794674,21.8297823 167.240717,20.637689 168.056622,19.3265255 C168.872528,18.015362 169.934459,16.7343776 171.242448,15.4835339 C171.007518,15.5724264 170.688463,15.7406845 170.285272,15.9883135 C169.882081,16.2359424 169.563026,16.420074 169.328096,16.5407138 C169.093166,16.6613535 168.874112,16.7216725 168.67093,16.7216725 C168.556639,16.7216725 168.451875,16.6994497 168.356633,16.6550035 C168.261391,16.6105572 168.120118,16.5280155 167.932809,16.4073758 C167.7455,16.286736 167.582003,16.226417 167.442315,16.226417 C167.239133,16.226417 167.069287,16.3137208 166.932774,16.488331 C166.79626,16.6629411 166.648638,16.978822 166.489901,17.4359832 L166.270846,18.159818 L165.899404,18.159818 L166.327991,16.7407208 C166.68991,15.4136836 167.302624,14.7501749 168.16615,14.7501749 C168.413779,14.7501749 168.650293,14.834304 168.875699,15.0025647 C169.101105,15.1708254 169.282062,15.2978127 169.418575,15.3835304 C169.555088,15.4692481 169.728108,15.5121063 169.937641,15.5121063 C170.585286,15.5121063 171.131331,15.3089267 171.575793,14.9025612 L171.7758,14.5311196 L172.185338,14.7311266 C171.131328,16.032766 170.310673,17.3264491 169.723347,18.6122148 Z M162.230704,15.9597411 C162.230704,15.6295691 162.091018,15.4644856 161.811642,15.4644856 C161.513217,15.4644856 161.246544,15.6216324 161.011614,15.9359307 C160.776684,16.250229 160.529059,16.7565908 160.268731,17.4550315 L159.992531,18.1788663 L159.630613,18.1788663 L160.135393,16.759769 C160.40207,16.0168822 160.751285,15.4962343 161.183049,15.1978096 C161.614812,14.899385 162.071966,14.7501749 162.554525,14.7501749 C163.418052,14.7501749 163.849809,15.1565343 163.849809,15.9692652 C163.849809,16.3502328 163.741869,16.8518326 163.525988,17.4740797 L161.440201,23.3885724 C161.338609,23.6679486 161.287814,23.9060498 161.287814,24.1028831 C161.287814,24.433055 161.443374,24.5981385 161.754497,24.5981385 C162.021175,24.5981385 162.271974,24.4505158 162.506905,24.1552659 C162.741835,23.860016 162.998984,23.3441301 163.27836,22.6075927 L163.545036,21.8837578 L163.916478,21.8837578 L163.411698,23.3123792 C163.15772,24.0171693 162.818029,24.5282932 162.392615,24.8457662 C161.967201,25.1632392 161.506872,25.3219733 161.011614,25.3219733 C160.103641,25.3219733 159.649662,24.925138 159.649662,24.1314555 C159.649662,23.7314395 159.76395,23.2171409 159.992531,22.5885444 L162.087842,16.6740518 C162.183084,16.388326 162.230704,16.1502249 162.230704,15.9597411 Z M162.868822,10.9929006 C163.00851,10.7611453 163.191054,10.5754264 163.41646,10.4357383 C163.641866,10.2960502 163.875205,10.2262071 164.116485,10.2262071 C164.40856,10.2262071 164.646661,10.323035 164.830795,10.5166935 C165.01493,10.710352 165.106995,10.9532152 165.106995,11.2452904 C165.106995,11.4992688 165.03874,11.7389573 164.902226,11.9643632 C164.765713,12.189769 164.583169,12.3723133 164.354588,12.5120014 C164.126008,12.6516895 163.887906,12.7215325 163.640277,12.7215325 C163.354552,12.7215325 163.119625,12.6262921 162.935491,12.4358082 C162.751357,12.2453244 162.659291,12.0072233 162.659291,11.7214975 C162.659291,11.4675191 162.729134,11.2246559 162.868822,10.9929006 Z M157.047666,23.3123792 C156.590505,24.6521153 155.803184,25.3219733 154.685679,25.3219733 C154.101528,25.3219733 153.691994,25.1314924 153.457064,24.7505248 C153.355473,24.5854388 153.304678,24.3727351 153.304678,24.1124072 C153.304678,23.7441385 153.415792,23.2361893 153.638023,22.5885444 L155.485706,17.0073968 C155.619045,16.6200797 155.685713,16.2994367 155.685713,16.0454583 C155.685713,15.5946467 155.476184,15.3692442 155.05712,15.3692442 C154.555513,15.3692442 153.990419,15.7327453 153.361823,16.4597585 C152.733226,17.1867717 152.11575,18.1852094 151.509377,19.4551014 C150.903003,20.7249935 150.374419,22.1345525 149.923607,23.6838208 L149.580738,25.0457732 L147.885441,25.0457732 L150.218856,16.6740518 C150.314097,16.3629282 150.361718,16.1184777 150.361718,15.9406928 C150.361718,15.6232198 150.218857,15.4644856 149.933131,15.4644856 C149.736298,15.4644856 149.560103,15.5263919 149.404541,15.6502064 C149.24898,15.7740209 149.09342,15.9787879 148.937858,16.2645136 C148.782297,16.5502393 148.612451,16.9470746 148.428317,17.4550315 L148.171165,18.1788663 L147.799723,18.1788663 L148.294979,16.759769 C148.75214,15.4200329 149.523588,14.7501749 150.609345,14.7501749 C151.37763,14.7501749 151.761767,15.1343115 151.761767,15.9025962 C151.761767,16.2518165 151.672876,16.7756391 151.495091,17.4740797 L150.818877,20.1408397 C151.377629,18.820152 151.915738,17.7661574 152.433219,16.9788243 C152.9507,16.1914913 153.472935,15.6232231 153.99994,15.2740028 C154.526945,14.9247825 155.095214,14.7501749 155.704762,14.7501749 C156.752423,14.7501749 157.276245,15.239076 157.276245,16.2168929 C157.276245,16.60421 157.181005,17.0962858 156.990521,17.693135 L155.095217,23.3885724 C154.993625,23.6933465 154.94283,23.937797 154.94283,24.1219314 C154.94283,24.4394044 155.09839,24.5981385 155.409513,24.5981385 C155.676191,24.5981385 155.930165,24.4505158 156.171445,24.1552659 C156.412724,23.860016 156.660349,23.3441301 156.914328,22.6075927 L157.17148,21.8837578 L157.533397,21.8837578 L157.047666,23.3123792 Z M145.845369,12.6358152 C145.845369,12.2802455 145.734255,12.0294456 145.512024,11.883408 C145.289793,11.7373704 144.92153,11.651654 144.407224,11.6262561 L144.502465,11.2357663 C144.946927,11.273863 145.604087,11.2929111 146.473963,11.2929111 C147.254946,11.2929111 147.86766,11.273863 148.312122,11.2357663 L148.207357,11.6262561 C147.750195,11.6453045 147.396218,11.7119728 147.145415,11.8262631 C146.894611,11.9405534 146.694606,12.124685 146.545394,12.3786634 C146.396181,12.6326418 146.261257,13.0072543 146.140618,13.5025122 L144.626279,19.3693841 C144.150069,21.1789803 143.511958,22.5567925 142.711926,23.5028621 C142.235717,24.0616146 141.6484,24.5044828 140.94996,24.83148 C140.251519,25.1584772 139.505469,25.3219733 138.711786,25.3219733 C137.321255,25.3219733 136.32123,24.9695836 135.711681,24.2647935 C135.25452,23.7568367 135.025943,23.0965027 135.025943,22.2837718 C135.025943,21.610729 135.187852,20.6583243 135.511674,19.426529 L137.130779,13.3025052 C137.238719,12.8897903 137.292689,12.5786714 137.292689,12.3691392 C137.292689,12.172306 137.249831,12.0230959 137.164113,11.9215045 C137.078395,11.8199132 136.943471,11.7484828 136.759337,11.7072113 C136.575203,11.6659398 136.314879,11.638955 135.978357,11.6262561 L136.102171,11.2357663 C136.622827,11.273863 137.460943,11.2929111 138.616545,11.2929111 C139.61341,11.2929111 140.426129,11.273863 141.054725,11.2357663 L140.940436,11.6262561 C140.464226,11.6453045 140.108662,11.6960994 139.873732,11.7786424 C139.638802,11.8611854 139.45467,12.0135701 139.321331,12.2358012 C139.187993,12.4580324 139.057831,12.8135968 138.930842,13.3025052 L137.206972,19.759874 C136.921246,20.8837285 136.778385,21.7631155 136.778385,22.3980615 C136.778385,23.1155505 136.95458,23.6679453 137.306975,24.0552624 C137.65937,24.4425794 138.251449,24.6362351 139.083228,24.6362351 C140.448362,24.6362351 141.522992,24.1933669 142.30715,23.3076172 C143.091309,22.4218675 143.692911,21.1821539 144.111975,19.5884394 L145.712031,13.5025122 C145.800924,13.1469425 145.845369,12.8580464 145.845369,12.6358152 Z" id="University" fill="#52AACA"></path>
                    <path d="M55.1202904,23.7076312 C55.6790429,24.5235368 56.5393819,24.9314835 57.7013331,24.9314835 C58.1457953,24.9314835 58.5600914,24.8394177 58.9442337,24.6552834 C59.3283761,24.471149 59.6394949,24.1838402 59.8775997,23.7933484 C60.1157045,23.4028566 60.234755,22.9155429 60.234755,22.3313925 C60.234755,21.8297852 60.1125298,21.3805676 59.8680756,20.9837263 C59.6236213,20.5868851 59.291867,20.2233839 58.8728026,19.893212 C58.4537383,19.5630401 57.8949941,19.1884275 57.1965535,18.7693632 C56.4219194,18.3058526 55.7996816,17.8899691 55.3298215,17.5217005 C54.8599615,17.1534318 54.4742376,16.7137382 54.1726382,16.2026067 C53.8710388,15.6914751 53.7202414,15.0898728 53.7202414,14.3977816 C53.7202414,13.6612443 53.8869123,13.0390065 54.2202589,12.5310497 C54.5536056,12.0230929 54.9980611,11.6437183 55.5536389,11.3929146 C56.1092167,11.1421109 56.720343,11.016711 57.3870364,11.016711 C57.7870524,11.016711 58.1315054,11.0500451 58.4204059,11.1167145 C58.7093063,11.1833838 58.9489948,11.2659256 59.1394786,11.3643422 C59.3299624,11.4627588 59.5394915,11.5881588 59.7680721,11.7405458 C60.0601472,11.9246802 60.282375,12.016746 60.434762,12.016746 C60.5554018,12.016746 60.6474676,11.9484903 60.7109622,11.8119769 C60.7744568,11.6754635 60.8252517,11.4579978 60.8633485,11.1595731 L61.3109832,11.1595731 C61.2474886,11.9215083 61.2157417,13.2485256 61.2157417,15.1406648 L60.768107,15.1406648 C60.7173114,14.4739715 60.5728633,13.8580831 60.3347585,13.2929811 C60.0966538,12.7278791 59.7474387,12.2691375 59.2871028,11.9167425 C58.826767,11.5643474 58.2537368,11.3881525 57.5679951,11.3881525 C57.1108339,11.3881525 56.7012999,11.483393 56.3393807,11.6738768 C55.9774614,11.8643606 55.6949147,12.131034 55.491732,12.4739048 C55.2885492,12.8167757 55.1869594,13.2104363 55.1869594,13.6548985 C55.1869594,14.3596886 55.3996631,14.9279568 55.825077,15.3597201 C56.2504908,15.7914834 56.7473286,16.180382 57.3156053,16.5264275 C57.883882,16.8724731 58.2664312,17.1058123 58.4632645,17.226452 C59.2823449,17.7407583 59.9299801,18.1868012 60.4061896,18.5645941 C60.8823991,18.942387 61.263361,19.3804932 61.5490867,19.8789258 C61.8348125,20.3773584 61.9776732,20.956738 61.9776732,21.6170818 C61.9776732,22.4171138 61.7935416,23.0949085 61.4252729,23.6504863 C61.0570042,24.2060641 60.5601664,24.6235348 59.9347445,24.9029111 C59.3093227,25.1822873 58.6093052,25.3219733 57.8346711,25.3219733 C57.212424,25.3219733 56.7013001,25.2568924 56.3012841,25.1267284 C55.9012681,24.9965645 55.5234809,24.8203696 55.1679111,24.5981385 C54.8758359,24.4140041 54.6536082,24.3219384 54.5012211,24.3219384 C54.3805814,24.3219384 54.2885156,24.390194 54.225021,24.5267074 C54.1615264,24.6632208 54.1107315,24.8806866 54.0726347,25.1791112 L53.625,25.1791112 C53.6757957,24.4679717 53.7011931,22.9092026 53.7011931,20.5027571 L54.1488278,20.5027571 C54.2377203,21.8234449 54.5615379,22.8917255 55.1202904,23.7076312 Z M71.5799139,15.0549475 C72.1577147,15.0549475 72.6529652,15.0358994 73.0656801,14.9978026 L73.0656801,15.3882925 C72.8053523,15.4200398 72.5736004,15.537503 72.3704177,15.7406858 C72.167235,15.9438685 71.976754,16.2835595 71.7989691,16.759769 L68.5988572,25.1410146 L67.9321672,26.836312 C67.6845383,27.4776075 67.4051662,27.9347618 67.0940426,28.2077886 C66.725774,28.54431 66.2178248,28.7125681 65.5701798,28.7125681 C65.1828627,28.7125681 64.8653945,28.609391 64.6177655,28.4030335 C64.3701366,28.1966761 64.246324,27.9093673 64.246324,27.5410986 C64.246324,27.229975 64.3383898,26.9807625 64.5225241,26.7934534 C64.7066585,26.6061443 64.9606331,26.5124912 65.2844555,26.5124912 C65.5701812,26.5124912 65.8066951,26.5918582 65.9940042,26.7505947 C66.1813132,26.9093313 66.2749664,27.1347337 66.2749664,27.4268089 C66.2749664,27.814126 66.1003588,28.1061967 65.7511385,28.30303 C65.7765364,28.3157289 65.8146326,28.3220783 65.8654282,28.3220783 C66.5829172,28.3220783 67.135312,27.8141291 67.5226291,26.7982155 L68.2178915,25.0172008 L64.6749104,16.5026172 C64.4526793,16.0518055 64.2320389,15.75656 64.0129825,15.6168719 C63.7939261,15.4771838 63.5732857,15.4073408 63.3510546,15.4073408 L63.3510546,14.9978026 C63.9606027,15.0803456 64.5987139,15.1216165 65.2654072,15.1216165 C65.8241597,15.1216165 66.6686253,15.0803456 67.7988292,14.9978026 L67.7988292,15.4073408 C67.4813562,15.4073408 67.233731,15.4184522 67.0559461,15.4406753 C66.8781612,15.4628984 66.7305385,15.5232174 66.6130734,15.621634 C66.4956084,15.7200506 66.4368768,15.8740227 66.4368768,16.0835549 C66.4368768,16.3184849 66.5194185,16.6391279 66.6845045,17.0454933 L69.0369678,22.8742687 L71.189424,17.226452 C71.3291121,16.8454844 71.3989552,16.5470643 71.3989552,16.3311826 C71.3989552,16.0264085 71.2830792,15.8010061 71.0513239,15.6549685 C70.8195686,15.5089309 70.4497181,15.4200398 69.9417613,15.3882925 L69.9417613,14.9978026 C70.627503,15.0358994 71.1735484,15.0549475 71.5799139,15.0549475 Z M77.0629628,24.0838348 C77.1613795,24.2870175 77.3169389,24.4298782 77.5296458,24.5124212 C77.7423527,24.5949642 78.0328362,24.6362351 78.4011049,24.6362351 L78.4011049,25.0457732 C77.2074064,24.9949775 76.4200851,24.9695801 76.0391175,24.9695801 C75.6581499,24.9695801 74.8708286,24.9949775 73.6771301,25.0457732 L73.6771301,24.6362351 C74.0453988,24.6362351 74.3358822,24.5949642 74.5485892,24.5124212 C74.7612961,24.4298782 74.9168555,24.2870175 75.0152722,24.0838348 C75.1136888,23.8806521 75.1628964,23.5981053 75.1628964,23.2361861 L75.1628964,12.0929391 C75.1628964,11.4897404 75.0533698,11.0532215 74.8343134,10.7833695 C74.6152571,10.5135174 74.2295331,10.3785934 73.6771301,10.3785934 L73.6771301,9.96905528 C74.0834956,10.007152 74.4866802,10.0262001 74.8866962,10.0262001 C75.724825,10.0262001 76.4010323,9.93413435 76.9153386,9.75 L76.9153386,23.2361861 C76.9153386,23.5981053 76.9645462,23.8806521 77.0629628,24.0838348 Z M83.1317466,24.0838348 C83.2301632,24.2870175 83.3857227,24.4298782 83.5984296,24.5124212 C83.8111365,24.5949642 84.1016199,24.6362351 84.4698886,24.6362351 L84.4698886,25.0457732 C83.2761901,24.9949775 82.4888689,24.9695801 82.1079012,24.9695801 C81.7269336,24.9695801 80.9396124,24.9949775 79.7459139,25.0457732 L79.7459139,24.6362351 C80.1141825,24.6362351 80.404666,24.5949642 80.6173729,24.5124212 C80.8300798,24.4298782 80.9856393,24.2870175 81.0840559,24.0838348 C81.1824725,23.8806521 81.2316801,23.5981053 81.2316801,23.2361861 L81.2316801,12.0929391 C81.2316801,11.4897404 81.1221536,11.0532215 80.9030972,10.7833695 C80.6840408,10.5135174 80.2983169,10.3785934 79.7459139,10.3785934 L79.7459139,9.96905528 C80.1522793,10.007152 80.555464,10.0262001 80.95548,10.0262001 C81.7936087,10.0262001 82.4698161,9.93413435 82.9841224,9.75 L82.9841224,23.2361861 C82.9841224,23.5981053 83.03333,23.8806521 83.1317466,24.0838348 Z M91.1529796,15.5359167 C90.8386813,15.2597152 90.3926384,15.1216165 89.8148375,15.1216165 C88.8941658,15.1216165 88.2497053,15.3533683 87.8814366,15.8168789 C88.1417644,15.8803735 88.3592302,16.0184722 88.5338404,16.2311791 C88.7084505,16.443886 88.7957543,16.7026227 88.7957543,17.0073968 C88.7957543,17.3375687 88.6925771,17.5963053 88.4862196,17.7836144 C88.2798622,17.9709235 88.0020775,18.0645766 87.6528572,18.0645766 C87.3226852,18.0645766 87.0639486,17.9534627 86.8766395,17.7312316 C86.6893304,17.5090005 86.5956773,17.2169297 86.5956773,16.8550105 C86.5956773,16.3470536 86.9004468,15.88355 87.509995,15.4644856 C87.827468,15.2549534 88.2195413,15.0803459 88.6862266,14.9406578 C89.152912,14.8009697 89.6719726,14.7311266 90.243424,14.7311266 C90.7767786,14.7311266 91.2466316,14.7962076 91.6529971,14.9263716 C92.0593625,15.0565355 92.3768308,15.2359051 92.6054114,15.4644856 C92.903836,15.7692597 93.108603,16.1232368 93.2197186,16.5264275 C93.3308341,16.9296183 93.3863911,17.486775 93.3863911,18.1979146 L93.3863911,23.6171518 C93.3863911,23.9409743 93.432424,24.1759008 93.5244911,24.3219384 C93.6165583,24.4679759 93.7705304,24.5409936 93.9864121,24.5409936 C94.1451486,24.5409936 94.291184,24.5060721 94.4245226,24.4362281 C94.5578613,24.366384 94.7038967,24.2647942 94.8626332,24.1314555 L95.0816885,24.4648005 C94.8531079,24.6362359 94.662627,24.7695726 94.5102399,24.8648145 C94.3578529,24.9600564 94.1832453,25.0362488 93.9864121,25.0933939 C93.7895788,25.1505391 93.5610017,25.1791112 93.3006738,25.1791112 C92.6720772,25.1791112 92.2355584,25.0219644 91.9911042,24.7076661 C91.7466499,24.3933679 91.6244247,23.9727224 91.6244247,23.4457172 C91.2434571,24.0743138 90.7863028,24.5203567 90.2529481,24.7838593 C89.7195935,25.0473619 89.1767227,25.1791112 88.6243197,25.1791112 C88.173508,25.1791112 87.7607993,25.1013315 87.3861812,24.9457697 C87.011563,24.7902079 86.7115555,24.5489321 86.4861497,24.2219349 C86.2607438,23.8949377 86.1480426,23.486991 86.1480426,22.9980825 C86.1480426,22.5028246 86.2686805,22.0805918 86.50996,21.7313715 C86.7512395,21.3821512 87.0909305,21.0757944 87.5290433,20.8122918 C87.9671561,20.5487892 88.5544723,20.2614804 89.2910097,19.9503568 C89.4179989,19.8995612 89.7291178,19.7725739 90.2243757,19.5693911 C90.7196336,19.3662084 91.0767854,19.1630287 91.2958417,18.959846 C91.5148981,18.7566633 91.6244247,18.5344355 91.6244247,18.293156 L91.6244247,17.0835899 C91.6244247,16.3280041 91.4672779,15.8121182 91.1529796,15.5359167 Z M91.1482175,19.5027221 C90.9259864,19.6297113 90.4624828,19.8646379 89.7576927,20.2075087 C89.3830745,20.3852936 89.0656063,20.5678378 88.8052784,20.7551469 C88.5449506,20.942456 88.3227228,21.1948432 88.1385884,21.5123163 C87.9544541,21.8297893 87.8623883,22.2202752 87.8623883,22.6837858 C87.8623883,23.2488878 88.005249,23.6758826 88.2909747,23.964783 C88.5767004,24.2536834 88.9544876,24.3981315 89.4243477,24.3981315 C90.2878743,24.3981315 91.0212259,23.9060557 91.6244247,22.9218894 L91.6244247,19.093184 C91.5291828,19.2392216 91.3704486,19.3757329 91.1482175,19.5027221 Z M100.150437,15.2787648 C100.683792,14.9136709 101.286982,14.7311266 101.960024,14.7311266 C102.683863,14.7311266 103.323561,14.9295443 103.879139,15.3263856 C104.434717,15.7232268 104.871236,16.3200671 105.188709,17.1169244 C105.506182,17.9137816 105.664916,18.8868218 105.664916,20.0360741 C105.664916,21.1599286 105.469673,22.12027 105.079181,22.9171273 C104.688689,23.7139846 104.163279,24.3139996 103.502935,24.7171903 C102.842592,25.120381 102.112415,25.3219733 101.312383,25.3219733 C100.836173,25.3219733 100.372669,25.2251455 99.9218578,25.031487 C99.4710461,24.8378285 99.0773855,24.5536944 98.7408641,24.1790762 L97.3503393,25.3600699 L97.0265184,25.2172078 C97.1154109,24.8997348 97.1598564,24.5251222 97.1598564,24.0933589 L97.1598564,12.1119874 C97.1598564,11.5087887 97.0503299,11.0722698 96.8312735,10.8024178 C96.6122171,10.5325657 96.2264932,10.3976417 95.6740902,10.3976417 L95.6740902,9.98810357 C96.0868051,10.0262003 96.4899898,10.0452484 96.8836563,10.0452484 C97.721785,10.0452484 98.3979924,9.95318263 98.9122987,9.76904829 L98.9122987,16.8169139 C99.2043739,16.15657 99.6170826,15.6438588 100.150437,15.2787648 Z M99.9551923,24.6267109 C100.345684,24.7917969 100.747281,24.8743386 101.159996,24.8743386 C102.036222,24.8743386 102.690206,24.4790907 103.12197,23.6885829 C103.553733,22.8980751 103.769611,21.6805843 103.769611,20.0360741 C103.769611,18.4487091 103.574368,17.2645525 103.183877,16.4835689 C102.793385,15.7025853 102.194957,15.3120993 101.388576,15.3120993 C101.039355,15.3120993 100.699664,15.4057525 100.369493,15.5930616 C100.039321,15.7803706 99.7456625,16.056568 99.4885093,16.421662 C99.2313562,16.7867559 99.0392879,17.2264495 98.9122987,17.7407557 L98.9122987,23.9028761 C99.2170728,24.2203491 99.5647005,24.461625 99.9551923,24.6267109 Z M116.805306,24.2505073 C117.024362,24.5203593 117.410086,24.6552834 117.962489,24.6552834 L117.962489,25.0648215 C117.556124,25.0267247 117.152939,25.0076766 116.752923,25.0076766 C115.914794,25.0076766 115.238587,25.0997424 114.72428,25.2838768 L114.72428,22.9790342 C114.406807,23.7790662 113.963939,24.3695572 113.395663,24.7505248 C112.827386,25.1314924 112.203561,25.3219733 111.524168,25.3219733 C110.647943,25.3219733 109.971736,25.0743481 109.495526,24.5790902 C109.260596,24.3251118 109.093925,23.9949448 108.995509,23.5885794 C108.897092,23.1822139 108.847884,22.661566 108.847884,22.02662 L108.847884,17.1312106 C108.847884,16.5280119 108.739945,16.0899057 108.524064,15.8168789 C108.308182,15.5438521 107.924045,15.4073408 107.371642,15.4073408 L107.371642,14.9978026 C107.778008,15.0358994 108.181192,15.0549475 108.581208,15.0549475 C109.400289,15.0549475 110.076496,14.9660564 110.609851,14.7882715 L110.609851,22.4552064 C110.609851,22.9504643 110.638423,23.3504743 110.695568,23.6552484 C110.752713,23.9600225 110.889225,24.209235 111.105106,24.4028936 C111.320988,24.5965521 111.64798,24.6933799 112.086093,24.6933799 C112.5877,24.6933799 113.038505,24.5378205 113.438521,24.2266969 C113.838537,23.9155734 114.152831,23.4901659 114.381411,22.9504618 C114.609992,22.4107577 114.72428,21.8139174 114.72428,21.159923 L114.72428,17.1312106 C114.72428,16.5280119 114.614754,16.0899057 114.395698,15.8168789 C114.176641,15.5438521 113.790917,15.4073408 113.238514,15.4073408 L113.238514,14.9978026 C113.64488,15.0358994 114.048064,15.0549475 114.44808,15.0549475 C115.27351,15.0549475 115.949717,14.9660564 116.476723,14.7882715 L116.476723,22.9409377 C116.476723,23.5441364 116.586249,23.9806552 116.805306,24.2505073 Z M120.888306,23.2742827 C121.066091,23.7949384 121.339113,24.2012978 121.707382,24.4933729 C122.075651,24.7854481 122.570901,24.9314835 123.193148,24.9314835 C123.478874,24.9314835 123.753484,24.8695772 124.016986,24.7457627 C124.280489,24.6219482 124.497955,24.4219432 124.66939,24.1457417 C124.840826,23.8695402 124.926542,23.5123884 124.926542,23.0742757 C124.926542,22.7187059 124.836064,22.3996503 124.655104,22.1170993 C124.474144,21.8345483 124.237631,21.5805737 123.945555,21.3551679 C123.65348,21.1297621 123.243946,20.8519773 122.716941,20.5218054 C122.075646,20.11544 121.585157,19.7820983 121.245461,19.5217704 C120.905765,19.2614426 120.618456,18.9439743 120.383526,18.5693562 C120.148596,18.194738 120.031133,17.7534571 120.031133,17.2455003 C120.031133,16.6930973 120.161295,16.2280063 120.421623,15.8502134 C120.68195,15.4724205 121.029578,15.1914611 121.464516,15.0073268 C121.899454,14.8231924 122.383593,14.7311266 122.916948,14.7311266 C123.374109,14.7311266 123.785231,14.8041443 124.150324,14.9501819 C124.515418,15.0962195 124.812251,15.261303 125.040832,15.4454373 C125.18052,15.5533782 125.294809,15.6073478 125.383701,15.6073478 C125.612282,15.6073478 125.758317,15.3216263 125.821812,14.7501749 L126.269446,14.7501749 C126.218651,15.3851209 126.193253,16.4899105 126.193253,18.0645766 L125.745618,18.0645766 C125.60593,17.2073995 125.329733,16.4994453 124.917018,15.9406928 C124.504303,15.3819403 123.894764,15.1025682 123.088383,15.1025682 C122.618523,15.1025682 122.234386,15.2343175 121.935961,15.4978201 C121.637537,15.7613227 121.488327,16.1279986 121.488327,16.5978586 C121.488327,17.0486703 121.642299,17.4248702 121.950248,17.7264695 C122.258196,18.0280689 122.629634,18.3153777 123.064572,18.5884044 C123.49951,18.8614312 123.809042,19.0582615 123.993176,19.1789013 C124.590025,19.5662184 125.07099,19.9106714 125.436084,20.2122708 C125.801178,20.5138701 126.096423,20.8599105 126.321829,21.2504023 C126.547235,21.6408941 126.659936,22.086937 126.659936,22.5885444 C126.659936,23.1663453 126.509139,23.6600084 126.207539,24.0695486 C125.90594,24.4790888 125.501168,24.7902076 124.993211,25.0029146 C124.485254,25.2156215 123.929685,25.3219733 123.326486,25.3219733 C122.748685,25.3219733 122.234387,25.2299075 121.783575,25.0457732 C121.529597,24.918784 121.262923,24.7441765 120.983547,24.5219454 C120.932751,24.4711497 120.872432,24.4457522 120.802588,24.4457522 C120.612105,24.4457522 120.478768,24.6902028 120.402574,25.1791112 L119.95494,25.1791112 C120.005735,24.4362244 120.031133,23.1377792 120.031133,21.2837368 L120.478767,21.2837368 C120.574009,22.0901183 120.710521,22.7536269 120.888306,23.2742827 Z" id="Syllabus" fill="#333333"></path>
                    <g id="Logo">
                        <path d="M7.3586007,29.5902176 C4.10174485,27.8313941 2.28396484,24.5431588 2.13248317,19.9549235 C1.98100151,15.2902176 3.49581818,11.9255118 6.60119237,9.93727647 C7.51008237,9.40198235 8.57045404,8.94315882 9.78230738,8.56080588 L11.2213832,6.11374706 C9.17638071,6.41962941 7.20711904,7.10786471 5.46507986,8.17845294 C2.88989151,9.86080588 -0.215482672,13.2255118 0.0117398292,20.0313941 C0.23896233,26.8372765 3.64729985,29.9725706 6.37396986,31.5019824 C8.11600904,32.4196294 10.0852707,32.9549235 12.2817549,33.1078647 L10.6911974,30.7372765 C9.55508488,30.5078647 8.41897238,30.1255118 7.3586007,29.5902176" id="Orange" fill="#F2AE6C"></path>
                        <path d="M36.4431566,24.6196294 C36.3674158,22.6313941 35.7614891,20.6431588 34.8525991,18.7313941 L33.6407458,21.3313941 C34.0194499,22.5549235 34.3224133,23.7019824 34.3224133,24.7725706 C34.4738949,28.5196294 32.5803741,31.7313941 28.6418507,34.1784529 C24.7790682,36.6255118 21.1435082,37.0078647 17.8109115,35.2490412 C16.9020215,34.7902176 15.9173907,34.0255118 15.0842415,33.1078647 L12.2818306,33.1078647 C13.5694248,34.7902176 15.0842415,36.1666882 16.9020215,37.0843353 C18.2653565,37.7725706 20.0073957,38.3843353 22.128139,38.3843353 C24.3246232,38.3843353 26.8998116,37.7725706 29.7779632,35.8608059 C35.4585258,32.2666882 36.5188974,27.7549235 36.4431566,24.6196294" id="Green" fill="#B5DDC3"></path>
                        <path d="M16.6747233,3.59021765 C19.7800974,1.52551176 23.4913983,1.60198235 27.5056625,3.81962941 C31.5956675,5.96080588 33.7164108,9.01962941 33.8678925,12.7666882 C33.9436334,13.9137471 33.7921517,15.1372765 33.4134475,16.2843353 L34.8525234,18.7313941 C35.6856725,16.6666882 36.0643767,14.6019824 35.9886359,12.6902176 C35.8371542,9.55492353 34.4738192,5.11962941 28.4902933,1.90786471 C22.5825083,-1.22742941 18.1895399,0.0725705882 15.5386107,1.75492353 C13.7965716,2.82551176 12.3574957,4.35492353 11.2213832,6.11374706 L14.0237941,5.88433529 C14.8569432,4.89021765 15.7658332,4.12551176 16.6747233,3.59021765" id="Blue" fill="#7CC2DB"></path>
                        <path d="M24.7033274,27.6784529 C21.5979532,29.6666882 17.3564665,30.9666882 13.3422023,30.9666882 C11.2971998,28.0608059 9.70664229,24.0843353 9.55516062,19.6490412 C9.40367896,15.2137471 10.6155323,11.1608059 12.4333123,8.10198235 C15.9173907,7.71962941 20.0831365,8.33139412 24.0216599,10.4725706 C27.9601832,12.5372765 30.8383349,15.6725706 32.5046332,18.8078647 C30.8383349,22.4784529 27.8087016,25.7666882 24.7033274,27.6784529 M33.4892641,16.2843353 C31.2927799,12.9961 28.1116649,10.2431588 25.0062907,8.56080588 C21.9766574,6.95492353 18.038134,5.88433529 14.0996106,5.88433529 L14.0238698,5.88433529 L11.221459,6.11374706 L9.85812396,8.56080588 C8.19182562,12.0784529 7.35867644,16.2078647 7.51015811,19.7255118 C7.66163978,23.2431588 8.72201145,27.2961 10.6912731,30.7372765 L12.2818306,33.1078647 L15.0842415,33.1078647 C15.4629457,33.1078647 15.8416498,33.0313941 16.220354,33.0313941 C19.6286915,32.5725706 23.037029,31.3490412 25.8394399,29.5902176 C28.6418507,27.8313941 31.2170391,25.2313941 33.1105599,22.3255118 C33.3377824,22.0196294 33.4892641,21.7137471 33.7164866,21.4078647 L34.9283399,18.8078647 L33.4892641,16.2843353" id="Center" fill="#2E3D47"></path>
                    </g>
                </g>
            </g>
        </g>
    </g>
</svg>